<svg id="line_icon" height="512" viewBox="0 0 64 64" width="512" xmlns="http://www.w3.org/2000/svg" data-name="line icon"><path d="m31.455 40.31h-.2-.023c.006-.008-.066-.005-.1-.011a14.247 14.247 0 0 1 -10.67-8.851 14.427 14.427 0 0 1 2.135-13.7.5.5 0 0 1 .9.32 5.84 5.84 0 0 0 .745 3.049c.297-6.405 3.996-11.087 10.758-13.586a.5.5 0 0 1 .59.744 7.6 7.6 0 0 0 -.27 7.342 58.749 58.749 0 0 1 4.38 9.132 14.8 14.8 0 0 0 1.238-5.886.5.5 0 0 1 .921-.271 14.066 14.066 0 0 1 1.021 14.472 12.745 12.745 0 0 1 -11.425 7.246zm-.157-1h.152a11.744 11.744 0 0 0 10.533-6.679 12.733 12.733 0 0 0 -.132-12.071 16.769 16.769 0 0 1 -1.885 5.963.5.5 0 0 1 -.942-.2c-.161-2.623-4.535-10.15-4.579-10.223a8.513 8.513 0 0 1 -.3-7.145c-6.011 2.606-9.008 7.064-8.914 13.27a.5.5 0 0 1 -.745.443 4.308 4.308 0 0 1 -1.873-3.146 13.3 13.3 0 0 0 -1.213 11.572 13.26 13.26 0 0 0 9.9 8.215z"/><path d="m35.511 39.61a.494.494 0 0 1 -.376-.171.5.5 0 0 1 .047-.7 6.453 6.453 0 0 0 2.418-6.43 17.515 17.515 0 0 1 -1.272 2.653.5.5 0 0 1 -.889-.455c1.022-2.27-1.685-5.792-2.077-6.283-1.662-1.1-2.415-4.12-2.69-5.591-2.272 1.867-2.819 4.867-1.666 9.134a.5.5 0 0 1 -.638.606c-.761-.249-1.441-1.486-1.858-2.425-1.238 2.259-.645 5.042 1.8 8.477a.5.5 0 0 1 -.815.58c-2.971-4.18-3.4-7.69-1.27-10.431a.5.5 0 0 1 .864.135c.14.383.31.782.49 1.154-.6-3.953.45-6.757 3.192-8.533a.5.5 0 0 1 .767.358c.159 1.275.9 4.79 2.432 5.733a.487.487 0 0 1 .121.105 12.8 12.8 0 0 1 2.457 4.748 11.179 11.179 0 0 0 .571-1.845.5.5 0 0 1 .956-.075 7.584 7.584 0 0 1 -2.232 9.132.5.5 0 0 1 -.332.124z"/><path d="m45.164 54.45a2.48 2.48 0 0 1 -.769-.122l-26.332-8.463a2.519 2.519 0 0 1 1.542-4.8l26.333 8.463a2.52 2.52 0 0 1 -.774 4.918zm-26.329-12.5a1.52 1.52 0 0 0 -.466 2.966l26.331 8.461a1.52 1.52 0 0 0 .93-2.894l-26.33-8.462a1.523 1.523 0 0 0 -.465-.073z"/><path d="m45.164 54.45a2.48 2.48 0 0 1 -.769-.122l-26.332-8.463a2.519 2.519 0 0 1 1.542-4.8l26.333 8.463a2.52 2.52 0 0 1 -.774 4.918zm-26.329-12.5a1.52 1.52 0 0 0 -.466 2.966l26.331 8.461a1.52 1.52 0 0 0 .93-2.894l-26.33-8.462a1.523 1.523 0 0 0 -.465-.073z"/><path d="m37.259 47.769a.5.5 0 0 1 -.229-.945l7.964-4.091a1.517 1.517 0 0 0 .537-2.245 1.631 1.631 0 0 0 -2.054-.392l-11.428 5.868a.5.5 0 0 1 -.457-.889l11.428-5.868a2.615 2.615 0 0 1 3.326.7 2.517 2.517 0 0 1 -.895 3.714l-7.964 4.091a.492.492 0 0 1 -.228.057z"/><path d="m19.7 56.5a2.483 2.483 0 0 1 -2.05-1.02 2.52 2.52 0 0 1 .9-3.706l7.967-4.09a.5.5 0 1 1 .457.888l-7.974 4.091a1.513 1.513 0 0 0 -.824 1.352 1.536 1.536 0 0 0 .287.889 1.631 1.631 0 0 0 2.054.4l11.428-5.868a.513.513 0 0 1 .73.444.5.5 0 0 1 -.3.461l-11.4 5.851a2.8 2.8 0 0 1 -1.275.308z"/><path d="m37.259 47.769a.5.5 0 0 1 -.229-.945l7.964-4.091a1.517 1.517 0 0 0 .537-2.245 1.631 1.631 0 0 0 -2.054-.392l-11.428 5.868a.5.5 0 0 1 -.457-.889l11.428-5.868a2.615 2.615 0 0 1 3.326.7 2.517 2.517 0 0 1 -.895 3.714l-7.964 4.091a.492.492 0 0 1 -.228.057z"/><path d="m19.7 56.5a2.483 2.483 0 0 1 -2.05-1.02 2.52 2.52 0 0 1 .9-3.706l7.967-4.09a.5.5 0 1 1 .457.888l-7.974 4.091a1.513 1.513 0 0 0 -.824 1.352 1.536 1.536 0 0 0 .287.889 1.631 1.631 0 0 0 2.054.4l11.428-5.868a.513.513 0 0 1 .73.444.5.5 0 0 1 -.3.461l-11.4 5.851a2.8 2.8 0 0 1 -1.275.308z"/></svg>