<svg id="Capa_1" enable-background="new 0 0 512 512" height="512" viewBox="0 0 512 512" width="512" xmlns="http://www.w3.org/2000/svg"><g><ellipse cx="204.705" cy="383.554" rx="10" ry="10" transform="matrix(1 -.003 .003 1 -1.055 .565)"/><path d="m228.182 410.086c-5.258 1.723-8.124 7.383-6.401 12.641 4.818 14.704 1.022 30.63-9.91 41.562-15.894 15.894-41.756 15.894-57.651 0-3.913-3.913-10.256-3.913-14.169 0-15.894 15.895-41.757 15.894-57.65 0-15.894-15.894-15.894-41.755 0-57.649l43.212-43.212c10.793-10.795 28.024-11.915 40.084-2.607 4.381 3.382 10.672 2.571 14.054-1.809 3.381-4.38 2.571-10.672-1.809-14.054-20.011-15.447-48.599-13.599-66.499 4.299l-43.211 43.213c-23.707 23.707-23.707 62.282 0 85.99 11.854 11.853 27.424 17.78 42.995 17.78 12.632 0 25.263-3.9 35.91-11.701 23.772 17.418 57.435 15.39 78.905-6.079 16.303-16.303 21.967-40.05 14.783-61.973-1.724-5.26-7.385-8.125-12.643-6.401z"/><path d="m196.268 324.941c21.335 0 38.692-20.352 38.692-45.368s-17.357-45.368-38.692-45.368-38.691 20.352-38.691 45.368 17.356 45.368 38.691 45.368zm0-70.697c10.111 0 18.653 11.599 18.653 25.329s-8.542 25.329-18.653 25.329-18.652-11.599-18.652-25.329 8.542-25.329 18.652-25.329z"/><path d="m261.267 313.143c-18.2 0-33.006 17.208-33.006 38.359 0 21.152 14.807 38.36 33.006 38.36s33.006-17.208 33.006-38.36c0-21.151-14.807-38.359-33.006-38.359zm0 56.679c-7.029 0-12.967-8.39-12.967-18.32 0-9.931 5.938-18.32 12.967-18.32s12.967 8.389 12.967 18.32c0 9.93-5.938 18.32-12.967 18.32z"/><path d="m66.012 351.502c0-21.151-14.806-38.359-33.006-38.359s-33.006 17.208-33.006 38.359c0 21.152 14.807 38.36 33.006 38.36s33.006-17.208 33.006-38.36zm-33.006 18.32c-7.029 0-12.967-8.39-12.967-18.32 0-9.931 5.938-18.32 12.967-18.32s12.967 8.389 12.967 18.32c0 9.93-5.938 18.32-12.967 18.32z"/><path d="m98.005 324.941c21.335 0 38.691-20.352 38.691-45.368s-17.357-45.368-38.691-45.368-38.692 20.352-38.692 45.368 17.357 45.368 38.692 45.368zm0-70.697c10.111 0 18.652 11.599 18.652 25.329s-8.542 25.329-18.652 25.329-18.653-11.599-18.653-25.329 8.542-25.329 18.653-25.329z"/><path d="m400.556 130.813c-19.681-19.68-51.704-19.68-71.386 0l-43.212 43.213c-23.706 23.707-23.706 62.282 0 85.99 11.854 11.854 27.425 17.78 42.995 17.78 12.632 0 25.263-3.9 35.91-11.702 23.771 17.418 57.434 15.392 78.905-6.079 23.706-23.707 23.706-62.282 0-85.99zm29.042 115.032c-7.699 7.7-17.936 11.94-28.825 11.94-10.888 0-21.126-4.24-28.825-11.94-1.879-1.879-4.428-2.934-7.085-2.934s-5.206 1.056-7.085 2.934c-7.699 7.7-17.936 11.94-28.825 11.94s-21.126-4.24-28.825-11.939c-15.894-15.894-15.894-41.756 0-57.65l43.212-43.212c11.867-11.868 31.178-11.868 43.045 0l43.212 43.212c15.895 15.893 15.895 41.755.001 57.649z"/><path d="m413.995 106.497c21.335 0 38.692-20.352 38.692-45.368 0-25.017-17.357-45.369-38.692-45.369s-38.691 20.352-38.691 45.369c0 25.016 17.356 45.368 38.691 45.368zm0-70.698c10.111 0 18.653 11.6 18.653 25.33s-8.542 25.329-18.653 25.329-18.652-11.599-18.652-25.329 8.542-25.33 18.652-25.33z"/><path d="m478.994 94.698c-18.2 0-33.006 17.208-33.006 38.36 0 21.151 14.806 38.359 33.006 38.359s33.006-17.208 33.006-38.359c0-21.152-14.807-38.36-33.006-38.36zm0 56.68c-7.029 0-12.967-8.389-12.967-18.32s5.938-18.32 12.967-18.32 12.967 8.39 12.967 18.32-5.939 18.32-12.967 18.32z"/><path d="m250.733 171.417c18.2 0 33.006-17.208 33.006-38.359 0-21.152-14.807-38.36-33.006-38.36s-33.006 17.208-33.006 38.36c0 21.151 14.807 38.359 33.006 38.359zm0-56.68c7.029 0 12.967 8.39 12.967 18.32s-5.938 18.32-12.967 18.32-12.967-8.389-12.967-18.32 5.938-18.32 12.967-18.32z"/><path d="m315.732 106.497c21.335 0 38.691-20.352 38.691-45.368 0-25.017-17.357-45.369-38.691-45.369-21.335 0-38.692 20.352-38.692 45.369 0 25.016 17.357 45.368 38.692 45.368zm0-70.698c10.111 0 18.652 11.6 18.652 25.33s-8.542 25.329-18.652 25.329-18.653-11.599-18.653-25.329 8.542-25.33 18.653-25.33z"/></g></svg>