<svg id="Capa_1" enable-background="new 0 0 512.081 512.081" height="40" viewBox="0 0 512.081 512.081"
     width="40" xmlns="http://www.w3.org/2000/svg">
    <g>
        <path
                d="m425.973 264.924v-9.743c0-9.392-7.641-17.032-17.032-17.032h-44.851c-3.481-16.972-18.532-29.776-36.519-29.776h-114.707c-17.986 0-33.038 12.804-36.519 29.776h-28.895c-.539-1.828-1.264-3.576-2.163-5.218l111.379-111.379c2.929-2.93 2.929-7.678 0-10.607-2.929-2.928-7.678-2.928-10.606 0l-111.38 111.38c-3.78-2.069-8.114-3.248-12.718-3.248-3.341 0-6.537.626-9.485 1.756-19.414-34.572-13.671-78.562 14.788-107.022l72.522-72.522c32.358-32.359 83.614-35.177 119.229-6.558.641.515.768 1.175.787 1.522.022.41-.062 1.009-.587 1.534l-48.506 48.506c-2.929 2.93-2.929 7.678 0 10.607 2.929 2.928 7.678 2.928 10.606 0l48.506-48.506c3.413-3.413 5.22-8.135 4.958-12.955-.263-4.841-2.585-9.361-6.369-12.401-41.592-33.425-101.448-30.14-139.23 7.643l-7.515 7.515-6.647-6.647c-9.141-9.14-24.016-9.141-33.158 0l-24.701 24.701c-9.142 9.143-9.142 24.017 0 33.158l6.647 6.647-7.149 7.149c-33.743 33.743-40.13 86.19-16.184 126.838-3.194 4.386-5.085 9.778-5.085 15.607 0 12.117 8.156 22.358 19.263 25.542.698 11.872 3.376 23.403 8.003 34.355 1.209 2.862 3.988 4.583 6.912 4.583.973 0 1.962-.19 2.915-.593 3.816-1.612 5.602-6.012 3.99-9.828-3.858-9.132-6.113-18.742-6.779-28.638 8.521-2.597 15.234-9.368 17.756-17.922h261.491c1.121 0 2.032.912 2.032 2.032v9.743c0 49.336-40.138 89.474-89.474 89.474h-.117c-.013 0-.025 0-.038 0h-102.253c-23.496.181-47.927-9.684-64.942-27.764-2.857-2.999-7.605-3.114-10.603-.256-2.999 2.857-3.114 7.604-.256 10.604 10.815 11.351 23.683 19.926 37.804 25.399l-40.615 121.004c-2.237 6.731-1.141 13.891 3.009 19.644s10.599 9.053 17.692 9.053c9.413 0 17.732-6.001 20.701-14.933l15.079-45.36h146.518l15.079 45.36c2.97 8.932 11.289 14.933 20.701 14.933 7.094 0 13.542-3.3 17.692-9.053s5.247-12.912 3.016-19.622l-20.392-61.966c-1.295-3.935-5.534-6.071-9.468-4.779-3.935 1.295-6.075 5.534-4.78 9.469l20.399 61.987c.699 2.103.356 4.339-.94 6.136s-3.311 2.828-5.527 2.828c-2.94 0-5.539-1.875-6.467-4.665l-41.06-123.52c4.764-.465 9.435-1.253 13.991-2.339l9.055 27.517c1.039 3.156 3.972 5.157 7.123 5.157.777 0 1.567-.122 2.346-.378 3.935-1.295 6.075-5.534 4.78-9.469l-9-27.35c38.595-15.364 65.948-53.101 65.948-97.11zm-298.205-186.123c-3.293-3.293-3.293-8.651 0-11.944l24.701-24.701c1.595-1.596 3.716-2.475 5.973-2.475s4.377.879 5.973 2.474l6.646 6.647-36.646 36.646zm-5.806 178.42c-6.381 0-11.572-5.191-11.572-11.572s5.191-11.572 11.572-11.572 11.572 5.191 11.572 11.572-5.191 11.572-11.572 11.572zm69.924-19.072c3.086-8.605 11.325-14.776 20.978-14.776h114.707c9.653 0 17.892 6.171 20.978 14.776zm32.461 131.249h91.741l12.373 37.221h-116.487zm-56.701 123.018c-.927 2.79-3.526 4.665-6.467 4.665-2.216 0-4.23-1.031-5.527-2.828s-1.639-4.033-.947-6.115l40.736-121.365c4.342.989 8.77 1.701 13.262 2.132zm34.299-55.628 5.043-15.17h126.459l5.043 15.17z" />
        <path
                d="m275.947 137.35c-4.142 0-7.5 3.357-7.5 7.5 0 5.499-4.474 9.974-9.974 9.974-16.152 0-29.292 13.141-29.292 29.292 0 4.143 3.358 7.5 7.5 7.5s7.5-3.357 7.5-7.5c0-7.881 6.412-14.292 14.292-14.292 13.771 0 24.974-11.203 24.974-24.974 0-4.143-3.358-7.5-7.5-7.5z" />
        <path
                d="m324.656 144.85c0 5.499-4.474 9.974-9.974 9.974-16.152 0-29.292 13.141-29.292 29.292 0 4.143 3.358 7.5 7.5 7.5s7.5-3.357 7.5-7.5c0-7.881 6.412-14.292 14.292-14.292 13.771 0 24.974-11.203 24.974-24.974 0-4.143-3.358-7.5-7.5-7.5s-7.5 3.357-7.5 7.5z" />
    </g>
</svg>