<svg height="40" viewBox="0 0 64 64" width="40" xmlns="http://www.w3.org/2000/svg">
    <g id="fireplace">
        <path
                d="m32 57a10.59 10.59 0 0 1 -7.61-3.19 11 11 0 0 1 -.71-14.59l2.55-3.17a1 1 0 0 1 .93-.36 1 1 0 0 1 .78.61c.45 1.09.91 1.45 1.06 1.45.58 0 2-2.54 2-7.25a1 1 0 0 1 .67-.94 1 1 0 0 1 1.11.31l7.54 9.35a11 11 0 0 1 -.71 14.59 10.59 10.59 0 0 1 -7.61 3.19zm-5.15-18.53-1.62 2a9 9 0 0 0 .59 11.92 8.66 8.66 0 0 0 12.36 0 9 9 0 0 0 .59-11.93l-5.92-7.34c-.43 3.58-1.73 6.61-3.85 6.61a2.63 2.63 0 0 1 -2.15-1.26z" />
        <path
                d="m32 57a6.07 6.07 0 0 1 -4.43-1.9 6.52 6.52 0 0 1 -.41-8.59l4.06-5.13a1 1 0 0 1 1.78.62 9 9 0 0 0 .74 4.06 3.31 3.31 0 0 0 .28-.63 1 1 0 0 1 .78-.66 1 1 0 0 1 1 .36l1.09 1.39a6.55 6.55 0 0 1 -.41 8.59 6.1 6.1 0 0 1 -4.48 1.89zm-.79-12.39-2.49 3.15a4.51 4.51 0 0 0 .29 6 4.12 4.12 0 0 0 6 0 4.56 4.56 0 0 0 .29-6l-.16-.2a1.78 1.78 0 0 1 -1.37.69c-1.38 0-2.2-1.6-2.56-3.64z" />
        <path
                d="m48 57h-32a1 1 0 0 1 -1-1v-24a7 7 0 0 1 7-7h20a7 7 0 0 1 7 7v24a1 1 0 0 1 -1 1zm-31-2h30v-23a5 5 0 0 0 -5-5h-20a5 5 0 0 0 -5 5z" />
        <path
                d="m60 61h-56a1 1 0 0 1 -1-1v-4a1 1 0 0 1 1-1h56a1 1 0 0 1 1 1v4a1 1 0 0 1 -1 1zm-55-2h54v-2h-54z" />
        <path
                d="m54 57h-44a1 1 0 0 1 -1-1v-34a1 1 0 0 1 1-1h44a1 1 0 0 1 1 1v34a1 1 0 0 1 -1 1zm-43-2h42v-32h-42z" />
        <path
                d="m58 23h-52a1 1 0 0 1 -1-1v-6a1 1 0 0 1 1-1h52a1 1 0 0 1 1 1v6a1 1 0 0 1 -1 1zm-51-2h50v-4h-50z" />
        <path
                d="m46 17h-28a1 1 0 0 1 -1-1v-12a1 1 0 0 1 1-1h28a1 1 0 0 1 1 1v12a1 1 0 0 1 -1 1zm-27-2h26v-10h-26z" />
    </g>
</svg>