<svg id="Layer_1" enable-background="new 0 0 70 70" height="40" viewBox="0 0 70 70" width="40"
     xmlns="http://www.w3.org/2000/svg">
    <g>
        <path
                d="m9.2 52.5 2.8.9-2.8.9c-5.9 1.9-6.6 10.1-1.1 13 1.7.9 3.6 1 5.4.4l21.5-6.9c22.5 7.1 21.7 7.2 23.6 7.2 8 0 9.7-11.3 2.2-13.7l-2.8-.9c.3-.1-1 .3 2.8-.9 5.9-1.9 6.6-10.1 1.1-13-1.7-.9-3.6-1-5.4-.4l-5.5 1.8c1.9-4.8 5.1-16.6-4.3-26.3-.3-.3-.8-.4-1.2-.2-1.6.8 1.3 3.2-3.3 10.8-5-6.7-5.4-19-5.5-19.2 0-.7-.8-1.2-1.5-.9-.4.2-8.1 4.4-9.2 16.9-1.6-2.5-.9-4-2.1-4.1-.4 0-.8.2-1 .6-.2.5-5.6 12.6-4 22.4l-5.5-1.8c-3.7-1.2-7.7.8-8.8 4.5s.9 7.7 4.6 8.9zm-.1 12.9c-4-2-3.5-7.9.8-9.3l5.4-1.7 16.5 5.3c-18.4 5.4-19.5 7.4-22.7 5.7zm48-24.4c2.7-.9 5.5.6 6.3 3.2.9 2.7-.6 5.5-3.3 6.3-2.6.8-5.5-.6-6.3-3.3-.8-2.5.6-5.3 3.3-6.2zm-4.7 1.5c-1.9 3.6-.4 7.8 3.1 9.6l-.8.2-16.4-5.3zm-17.4 3.5-4.6-1.5c-1.3-2.1-1.9-3.8-2.2-5.1.7.7 3 2.4 3.9 1.8.3-.2.4-.5.4-.8.1-3.6.9-6.2 1.8-7.9.2 1.8.7 4 2.2 6 .3.4.7.5 1.2.3 1.9-.7 3.2-2 4-3.7 1.1 2.8.9 5.9-.7 9.1zm-11.2-24.2c.6 1.3 2.4 4.2 3.6 3.6.4-.2.6-.5.6-.9.1-10 4.6-14.9 6.9-16.8.4 4.1 1.7 14.2 6.7 19.7.4.4 1.2.4 1.5-.1.2-.2 3.3-4.6 3.9-9.4 7.7 10.1 2.5 21.6 1.5 23.8l-5 1.6c1.5-4.1 1.1-8-1.3-11.5-.2-.3-.7-.5-1.1-.4-1.5.4-.1 3.4-3.5 5.2-2.1-3.3-1.3-7.4-1.3-7.4.2-.9-.9-1.6-1.7-.9-.1.1-3.5 3.3-4.1 10.6-3.1-2-1.9-3.6-3.4-3.6-.4 0-.8.2-1 .6-.1.3-1.2 2.9 1.3 7.9l-6.4-2.1c-1.4-6.9 1.2-15.6 2.8-19.9zm10.9 26.2 25.5 8.2c2.6.8 4.1 3.7 3.3 6.3s-3.7 4.1-6.3 3.3l-42.7-13.7c3.5-1.7 5-6 3.1-9.6zm-25.6-6.7c1.2-.6 2.5-.7 3.8-.3 2.6.8 4.1 3.7 3.3 6.3-1.4 4.3-7.2 4.7-9.3.8-.6-1.2-.3-5.5 2.2-6.8z" />
        <path
                d="m23.2 49.5c.5.2 1.1-.1 1.3-.6.4-1.2-1-1.3-1.1-1.4-.5-.2-1.1.1-1.3.6-.4 1.2 1 1.3 1.1 1.4z" />
        <path
                d="m50.6 58.3c.5.2 1.1-.1 1.3-.6.6-1.8-1.6-1.1-24.1-8.8-.5-.2-1.1.1-1.3.6-.5 1.9 1.6 1.2 24.1 8.8z" />
        <path
                d="m25.3 12.2c.9 0 1.3-1.1.7-1.7-.7-.7-.7-1.9 0-2.7 1.5-1.5 1.5-4 0-5.5-.9-.9-2.3.5-1.4 1.4.7.7.7 1.9 0 2.7-2.2 2.2-.7 5.8.7 5.8z" />
        <path
                d="m42.1 16.3c.9 0 1.3-1.1.7-1.7-.7-.7-.7-1.9 0-2.7.7-.7 1.1-1.7 1.1-2.8 0-1.7-1.4-3.9-2.6-2.8-.4.4-.4 1 0 1.4.5.5.7.9.7 1.5 0 .5-.2 1-.6 1.3-2.2 2.2-.7 5.8.7 5.8z" />
        <path
                d="m15.2 36.1c.9 0 1.3-1.1.7-1.7-.7-.7-.7-1.9 0-2.7 1.5-1.5 1.5-4 0-5.5-.9-.9-2.4.5-1.4 1.4.7.7.7 1.9 0 2.7-2.2 2.2-.7 5.8.7 5.8z" />
    </g>
</svg>