<svg id="svg27761" height="40" viewBox="0 0 16.933333 16.933334" width="40"
     xmlns="http://www.w3.org/2000/svg" xmlns:svg="http://www.w3.org/2000/svg">
    <g id="layer1" transform="translate(0 -280.067)">
        <path id="path7992"
              d="m3.703649 282.17867c-.1323261 0-.2651019.0882-.2651019.26459v.97307l-2.50992219 3.2644h-.13436071c-.14692578-.00053-.26617349.11869-.26561521.26561v1.05885c.00052916.14612.11949641.26411.26561521.26355h.00672c.15570201 3.68925 3.5447552 6.61458 7.665683 6.61458 2.2774298.00001 4.3277418-.88918 5.7366008-2.30993.258429-.25045-.127386-.63309-.375687-.37259-1.305714 1.31674-3.221316 2.15336-5.3609164 2.15336-2.6238148 0-4.902925-1.25247-6.1448448-3.11196.9081135.79131 2.1441648 1.27848 3.5000459 1.27848 2.6605257 0 4.8652983-1.86792 5.0177803-4.25194h4.759399c-.0264.57061-.132278 1.12223-.317293 1.64434-.117819.33281.381376.50954.499195.17674.204512-.57716.320511-1.1891.347265-1.82108h.01188c.145314-.00053.262969-.11823.263551-.26355v-1.05885c.00053-.14612-.117432-.26503-.263551-.26561h-.134358l-2.511986-3.26647v-.971c0-.35287-.529683-.35287-.529683 0v.97307l-2.509924 3.2644h-.136428c-.146118.00052-.264104.11949-.263548.26561v1.05885c.000529.14025.110585.25563.250631.26304-.08971 1.21175-.7893442 2.27981-1.8386474 2.95795-1.052367-.68048-1.7520893-1.74557-1.8412328-2.95795.1410627-.006.2525025-.12185.2532142-.26304v-1.05885c.0005292-.14612-.11743-.26503-.2635488-.26561h-.134358l-2.5119913-3.26647v-.971c0-.17644-.1322599-.26459-.2645829-.26459zm.2645833 2.10323 1.8443311 2.39883h-1.8443311zm8.9958327.001v2.39779h-1.844333zm-9.5255179.002v2.39624h-1.8422647zm10.0552009.002 1.843815 2.39468h-1.843815zm-12.4359323 2.92385h5.2932171v.52917h-5.2932171zm9.5255153 0h5.291151v.52917h-5.291151zm-9.2449141 1.05875h4.7563008c.084727 1.31409.7965758 2.47423 1.8593171 3.24735-.6330659.30247-1.357974.47542-2.1321687.47542-2.4008477 0-4.3301523-1.65612-4.4834492-3.72277zm13.4704951 2.6603c-.05.0854-.101883.16959-.156061.2527-.206132.29792.252793.59781.442867.28939.0588-.0902.115716-.18213.170016-.27492.169659-.34609-.282713-.55236-.456822-.26717z"
              font-variant-ligatures="normal" font-variant-position="normal" font-variant-caps="normal"
              font-variant-numeric="normal" font-variant-alternates="normal"
              font-feature-settings="normal" text-indent="0" text-align="start"
              text-decoration-line="none" text-decoration-style="solid" text-decoration-color="rgb(0,0,0)"
              text-transform="none" text-orientation="mixed" white-space="normal" shape-padding="0"
              isolation="auto" mix-blend-mode="normal" solid-color="rgb(0,0,0)" solid-opacity="1"
              vector-effect="none" />
    </g>
</svg>