<svg clip-rule="evenodd" fill-rule="evenodd" height="40" image-rendering="optimizeQuality"
     shape-rendering="geometricPrecision" text-rendering="geometricPrecision" viewBox="0 0 1707 1707"
     width="40" xmlns="http://www.w3.org/2000/svg">
    <g id="Layer_x0020_1">
        <path
                d="m853 1480c-85 0-155-69-155-155s70-156 155-156c86 0 156 70 156 156s-70 155-156 155zm814-837c-11 0-21-4-29-12-434-434-1136-434-1570 0-37 37-93-19-56-57 464-464 1219-464 1683 0 25 26 7 69-28 69zm-1404 222c-36 0-54-43-29-68 342-342 897-342 1238 0 38 37-19 93-56 56-310-310-815-310-1125 0-8 8-18 12-28 12zm959 222c-11 0-21-4-29-11-187-188-492-188-680 0-37 37-94-20-56-57 219-219 574-219 793 0 25 25 7 68-28 68zm-369 162c-41 0-75 34-75 76s34 75 75 75c42 0 76-33 76-75s-34-76-76-76z" />
    </g>
</svg>