<svg id="Layer_1" enable-background="new 0 0 512 512" viewBox="0 0 512 512" height="40" width="40"
     xmlns="http://www.w3.org/2000/svg">
    <g>
        <path
                d="m118.199 443.704c15.999 11.598 40.456 3.53 68.774-5.787 21.636-7.108 46.153-15.176 69.026-15.176s47.396 8.068 69.026 15.176c18.31 6.027 35.005 11.514 48.849 11.514 7.564 0 14.276-1.633 19.937-5.727 9.335-6.76 13.88-18.85 13.88-36.968 0-71.439-47.066-172.054-151.691-172.054s-151.681 100.614-151.681 172.053c0 18.118 4.539 30.209 13.88 36.969zm137.799-190.58c91.91 0 133.249 89.833 133.249 153.612 0 7.984-1.087 18.286-6.255 22.02-8.369 6.075-30.653-1.261-52.204-8.357-22.945-7.54-48.957-16.101-74.789-16.101-25.826 0-51.832 8.561-74.783 16.101-21.552 7.096-43.836 14.42-52.204 8.357-5.169-3.734-6.249-14.036-6.249-22.02-.002-63.779 41.337-153.612 133.235-153.612z" />
        <path
                d="m178.64 235.714c36.11 0 65.484-38.841 65.484-86.579s-29.374-86.579-65.484-86.579c-36.104 0-65.484 38.841-65.484 86.579s29.38 86.579 65.484 86.579zm0-154.716c25.94 0 47.042 30.569 47.042 68.137s-21.102 68.137-47.042 68.137c-25.934 0-47.042-30.569-47.042-68.137s21.108-68.137 47.042-68.137z" />
        <path
                d="m27.7 201.027c-21.017 16.233-20.921 51.724.222 79.111 9.917 12.859 23.017 22.176 36.872 26.222 5.073 1.489 10.043 2.221 14.816 2.221 9.263 0 17.776-2.762 24.788-8.176 10.632-8.201 16.245-21.276 15.801-36.8-.408-14.432-6.099-29.464-16.017-42.311-21.144-27.399-55.453-36.476-76.482-20.267zm65.429 84.778c-5.835 4.502-14.066 5.511-23.155 2.858-10.146-2.966-19.895-10.001-27.453-19.787-14.678-19.018-16.305-43.404-3.554-53.249 3.77-2.906 8.441-4.274 13.543-4.274 12.163 0 26.727 7.804 37.07 21.204 7.558 9.797 11.88 21.011 12.181 31.577.277 9.473-2.791 17.169-8.632 21.671z" />
        <path
                d="m407.605 300.405c7.012 5.415 15.524 8.176 24.782 8.176 4.779 0 9.749-.732 14.822-2.221 13.862-4.046 26.955-13.363 36.872-26.222 21.138-27.387 21.24-62.878.222-79.111-21.023-16.197-55.338-7.12-76.482 20.267-9.917 12.847-15.608 27.879-16.017 42.311-.444 15.525 5.169 28.6 15.801 36.8zm14.816-67.849c10.344-13.399 24.908-21.204 37.07-21.204 5.097 0 9.773 1.369 13.537 4.274 12.751 9.845 11.13 34.231-3.548 53.249-7.558 9.785-17.307 16.821-27.453 19.787-9.101 2.653-17.319 1.645-23.161-2.858-5.835-4.502-8.897-12.199-8.633-21.672.307-10.564 4.636-21.778 12.188-31.576z" />
        <path
                d="m267.879 149.135c0 47.738 29.374 86.579 65.484 86.579 36.104 0 65.478-38.841 65.478-86.579s-29.374-86.579-65.478-86.579c-36.11 0-65.484 38.841-65.484 86.579zm65.483-68.137c25.94 0 47.036 30.569 47.036 68.137s-21.096 68.137-47.036 68.137-47.042-30.569-47.042-68.137 21.102-68.137 47.042-68.137z" />
    </g>
</svg>