<svg enable-background="new 0 0 64 64" height="64" viewBox="0 0 64 64" width="64" xmlns="http://www.w3.org/2000/svg"><g id="Rectangle"><path d="m0 0h64v64h-64z" fill="none"/></g><g id="_x31_"><g><path d="m61.992 64h-59.982c-.626 0-1.206-.285-1.59-.782-.382-.495-.512-1.124-.355-1.726.687-2.644 3.084-4.492 5.829-4.492h.004c0-2.894 2.069-5.375 4.921-5.9.001 0 .003 0 .004-.001.032-.006.064-.011.096-.017 0-.027 0-.055 0-.083 0-.406.042-.816.123-1.221.472-2.343 2.37-4.219 4.723-4.667 2.485-.469 4.944.595 6.269 2.72.75-.493 1.644-.765 2.585-.821 1.694-.111 3.384.651 4.66 2.061.961 1.063 1.505 2.12 1.666 3.23 3.359-2.296 5.549-3.301 7.08-3.301 1.053 0 2.093.283 3.008.819 1.036-1.76 2.941-2.819 5.025-2.819 2.273 0 4.326 1.258 5.357 3.284 1.297-1.041 2.949-1.468 4.626-1.211 2.424.372 4.46 2.311 4.951 4.716.264 1.296.102 2.603-.471 3.778 1.68.678 2.955 2.165 3.414 3.922.158.604.029 1.234-.354 1.729-.384.497-.963.782-1.589.782zm-56.098-5c-1.834 0-3.435 1.232-3.893 2.996l59.991.004c-.298-1.175-1.149-2.166-2.269-2.654-.495-.216-.885-.631-1.072-1.138-.185-.502-.16-1.04.071-1.516.378-.777.485-1.643.31-2.503-.327-1.601-1.681-2.892-3.294-3.139-1.125-.171-2.231.112-3.113.802-.474.371-1.078.513-1.656.384-.576-.127-1.063-.508-1.336-1.044-.688-1.353-2.058-2.192-3.575-2.192-1.389 0-2.659.707-3.397 1.891-.553.887-1.734 1.181-2.638.654-.618-.362-1.29-.545-1.998-.545-1.067 0-3.083.984-5.993 2.924-.577.383-1.298.444-1.932.161-.617-.275-1.042-.835-1.137-1.499-.102-.704-.484-1.416-1.169-2.174-.866-.957-1.983-1.465-3.057-1.406-.624.037-1.217.219-1.765.539-.914.536-2.072.248-2.636-.655-.886-1.419-2.533-2.134-4.198-1.814-1.563.297-2.823 1.542-3.136 3.097-.056.275-.083.553-.083.827 0 .182.013.365.037.545.071.144.109.308.107.482-.007.523-.452.944-.968.981-.068.006-.135.003-.199-.005-.027-.002-.053-.005-.07-.008-.153.005-.4.028-.642.072-.001 0-.001 0-.002 0-1.903.35-3.284 2.004-3.284 3.933 0 .274.037.567.114.896.021.08.031.163.031.248 0 .12-.021.237-.062.347-.051.138-.13.259-.229.359s-.221.18-.359.231c-.11.041-.228.063-.348.063 0 0 0 0-.001 0 0 0 0 0-.001 0-.083 0-.166-.01-.245-.03-.332-.077-.628-.114-.904-.114z"/></g><g><path d="m32 53c-.552 0-1-.448-1-1v-29c0-.552.448-1 1-1s1 .448 1 1v29c0 .552-.448 1-1 1z"/></g><g><path d="m32.222 30.778c-.256 0-.512-.098-.707-.293-.391-.391-.391-1.023 0-1.414l7.778-7.778c.391-.391 1.023-.391 1.414 0s.391 1.023 0 1.414l-7.778 7.778c-.196.196-.451.293-.707.293z"/></g><g><path d="m32 27c-.256 0-.512-.098-.707-.293l-7.778-7.778c-.391-.391-.391-1.023 0-1.414s1.023-.391 1.414 0l7.778 7.778c.391.391.391 1.023 0 1.414-.195.195-.451.293-.707.293z"/></g><g><path d="m39.412 36c-2.707 0-5.299-.933-7.396-2.681-2.63 2.167-6.058 3.082-9.431 2.511-4.811-.813-8.693-4.761-9.441-9.601-.912-5.897 2.703-11.515 8.408-13.065-.047-.536-.081-1.042-.081-1.539 0-6.333 4.94-11.437 11.246-11.62 5.697-.18 10.736 3.984 11.755 9.652.248 1.383.232 2.797-.047 4.204v.001c-.004.021.007.043.013.048 4.483 2.167 7.085 6.966 6.472 11.94-.659 5.353-5.031 9.6-10.396 10.099-.369.034-.737.051-1.102.051zm-6.366-34c-.09 0-.181.001-.271.004-5.218.152-9.305 4.378-9.305 9.621 0 .41.028.827.083 1.239.134 1.006-.501 1.964-1.477 2.229-4.722 1.284-7.712 5.939-6.956 10.83.619 4 3.825 7.263 7.798 7.935 2.839.48 5.604-.257 7.786-2.076.751-.626 1.841-.626 2.592 0 1.968 1.641 4.467 2.413 7.032 2.175 4.437-.413 8.052-3.926 8.596-8.352.508-4.125-1.646-8.102-5.36-9.897-.832-.402-1.284-1.323-1.101-2.239.23-1.16.244-2.324.04-3.459-.828-4.611-4.867-8.01-9.457-8.01zm10.397 11.666h.01z"/></g></g><g id="_x32_"/><g id="_x33_"/><g id="_x34_"/><g id="_x35_"/><g id="_x36_"/><g id="_x37_"/><g id="_x38_"/><g id="_x39_"/><g id="_x31_0"/><g id="_x31_1"/><g id="_x31_2"/><g id="_x31_3"/><g id="_x31_4"/><g id="_x31_5"/><g id="_x31_6"/><g id="_x31_7"/><g id="_x31_8"/><g id="_x31_9"/><g id="_x32_0"/><g id="_x32_1"/><g id="_x32_2"/><g id="_x32_3"/><g id="_x32_4"/><g id="_x32_5"/></svg>