<svg enable-background="new 0 0 512 512" viewBox="0 0 512 512" xmlns="http://www.w3.org/2000/svg"><g id="_x34_6_Hammock"><g><path d="m478.258 200.004h-12.734l-54.843-70.587v-44.154c0-3.29-2.667-5.957-5.957-5.957s-5.957 2.667-5.957 5.957v44.021l-59.64 70.721h-12.88c-12.124 0-21.988 9.867-21.988 21.991 0 10.846 7.913 19.825 18.259 21.609-13.047 41.919-34.259 72.153-63.168 89.959-32.87-20.48-58.62-53.108-70.34-89.911 10.575-1.589 18.733-10.648 18.733-21.657 0-12.124-9.864-21.991-21.991-21.991h-13.188l-54.825-70.564v-44.155c0-3.29-2.667-5.957-5.957-5.957s-5.957 2.667-5.957 5.957v44.021l-59.62 70.698h-12.463c-12.124 0-21.988 9.867-21.988 21.991 0 12.042 9.739 21.831 21.751 21.962 10.305 59.892 45.861 116.814 93.794 149.495 37.631 25.653 84.018 39.243 130.722 39.243 17.881 0 35.813-1.997 53.31-6.064 48.491-11.282 91.925-57.352 128.588-103.33 18.611-21.278 32.068-48.877 37.998-79.32h.343c12.124 0 21.988-9.862 21.988-21.986-.002-12.125-9.866-21.992-21.99-21.992zm-73.725-59.079 45.885 59.056h-95.686zm-292.942.024 45.885 59.056h-95.686zm-87.923 81.046c0-5.557 4.519-10.076 10.074-10.076h15.23 120.676 16.103c5.557 0 10.076 4.519 10.076 10.076 0 5.552-4.519 10.071-10.076 10.071h-152.009c-5.555 0-10.074-4.519-10.074-10.071zm284.963 193.028c-60.003 13.962-125.288 2.215-174.621-31.42-44.784-30.531-78.233-83.518-88.465-139.539l131.434 1.122c.786 2.585 1.636 5.151 2.55 7.697.319.89.689 1.763 1.023 2.648.622 1.646 1.229 3.297 1.903 4.925.06.144.13.285.19.429 2.776 6.65 6.004 13.121 9.597 19.396 15.234 26.606 37.423 49.462 63.659 65.126.226.154.463.298.71.424.006.004.012.006.017.009.011.005.021.013.031.019 6.26 3.691 12.743 6.977 19.415 9.806 36.476 15.489 77.009 17.211 111.212 4.724 2.557-.931 5.082-1.959 7.575-3.076-26.57 27.803-55.599 50.585-86.23 57.71zm155.058-162.055c-.263.97-.585 1.916-.865 2.88-.575 1.975-1.14 3.954-1.786 5.897-.373 1.12-.805 2.211-1.201 3.32-.625 1.752-1.234 3.512-1.916 5.235-.465 1.175-.987 2.316-1.477 3.476-.682 1.614-1.348 3.238-2.079 4.822-.553 1.198-1.159 2.36-1.739 3.541-.737 1.5-1.46 3.011-2.24 4.481-.636 1.197-1.32 2.355-1.983 3.531-.789 1.399-1.565 2.81-2.392 4.177-.721 1.193-1.487 2.343-2.237 3.51-.83 1.293-1.648 2.597-2.512 3.858-.807 1.178-1.655 2.314-2.491 3.462-.763 1.049-1.52 2.104-2.306 3.128-22.083 25.538-46.485 40.955-73.544 46.332-.796.144-1.593.282-2.394.41-1.018.165-2.038.322-3.063.464-1.258.171-2.521.323-3.788.46-.764.084-1.528.163-2.295.233-1.504.136-3.014.245-4.529.33-.599.034-1.197.066-1.798.092-1.478.063-2.96.097-4.445.113-.903.008-1.808.012-2.714.001-.83-.007-1.662-.031-2.494-.052-19.928-.839-41.176-6.443-63.857-16.847.942-.653 1.853-1.353 2.778-2.031.778-.57 1.568-1.119 2.334-1.706.968-.742 1.907-1.527 2.857-2.297.785-.637 1.582-1.254 2.355-1.91.905-.768 1.782-1.58 2.669-2.375.786-.705 1.585-1.39 2.358-2.115.839-.788 1.651-1.618 2.474-2.431.789-.779 1.59-1.539 2.364-2.34.781-.809 1.535-1.659 2.301-2.491.783-.851 1.578-1.682 2.345-2.556.741-.845 1.455-1.731 2.181-2.598.759-.905 1.53-1.792 2.273-2.721.709-.888 1.39-1.816 2.083-2.726.729-.955 1.471-1.893 2.183-2.873.672-.924 1.315-1.889 1.972-2.834.703-1.011 1.419-2.004 2.105-3.039.638-.963 1.247-1.969 1.871-2.954.673-1.062 1.359-2.105 2.014-3.193.611-1.012 1.192-2.067 1.787-3.101.637-1.105 1.287-2.19 1.907-3.32.586-1.068 1.142-2.178 1.712-3.267.597-1.14 1.209-2.261 1.789-3.424.582-1.167 1.133-2.377 1.698-3.567.537-1.131 1.089-2.24 1.61-3.393.586-1.294 1.14-2.634 1.706-3.956.469-1.094.955-2.165 1.41-3.278.576-1.406 1.119-2.859 1.674-4.295.415-1.073.847-2.123 1.251-3.212.592-1.601 1.149-3.25 1.716-4.885.335-.967.688-1.91 1.014-2.889.877-2.636 1.722-5.316 2.534-8.041h130.982c-.635 3.017-1.36 6.006-2.162 8.964zm14.569-20.902h-152.012c-5.555 0-10.074-4.519-10.074-10.071 0-5.557 4.519-10.076 10.074-10.076h152.012c5.555 0 10.074 4.519 10.074 10.076 0 5.552-4.519 10.071-10.074 10.071z"/></g></g><g id="Layer_1"/></svg>