<?xml version="1.0" encoding="iso-8859-1"?>
<!-- Generator: Adobe Illustrator 21.0.0, SVG Export Plug-In . SVG Version: 6.00 Build 0)  -->
<svg xmlns="http://www.w3.org/2000/svg" xmlns:xlink="http://www.w3.org/1999/xlink" version="1.1" id="Capa_1" x="0px" y="0px" viewBox="0 0 512 512" style="enable-background:new 0 0 512 512;" xml:space="preserve" width="512" height="512">
<g>
	<g>
		<g>
			<g>
				<path style="fill:none;stroke:#000000;stroke-width:15;stroke-linecap:round;stroke-linejoin:round;stroke-miterlimit:10;" d="      M471.368,338.832"/>
			</g>
		</g>
	</g>
</g>
<g>
	<path d="M140.033,496.999h-9.067v-25.633c0-4.143-3.357-7.5-7.5-7.5h-9.067V177.405c38.164-10.56,66.268-45.593,66.268-87.072   C180.666,40.523,140.144,0,90.334,0S0.001,40.523,0.001,90.333c0,41.478,28.103,76.51,66.266,87.071v286.462H57.2   c-4.143,0-7.5,3.357-7.5,7.5v25.633h-9.066c-4.143,0-7.5,3.357-7.5,7.5c0,4.143,3.357,7.5,7.5,7.5h99.399   c4.143,0,7.5-3.357,7.5-7.5C147.533,500.356,144.176,496.999,140.033,496.999z M15.001,90.333C15.001,48.794,48.795,15,90.334,15   c41.538,0,75.332,33.794,75.332,75.333c0,41.538-33.794,75.332-75.332,75.332C48.795,165.665,15.001,131.871,15.001,90.333z    M90.334,180.665c3.059,0,6.083-0.155,9.064-0.453v283.65H81.267V180.212C84.249,180.51,87.274,180.665,90.334,180.665z    M64.7,478.866h51.266v18.132H64.7V478.866z"/>
	<path d="M90.315,97.832c0.007,0,0.013,0.001,0.019,0.001c0.013,0,0.026-0.001,0.039-0.001h0.009c0.003,0,0.006-0.001,0.01-0.001   c13.244-0.031,24.01-10.815,24.01-24.066c0-13.271-10.797-24.067-24.067-24.067H73.767c-4.143,0-7.5,3.357-7.5,7.5v33.114   c0,0.007-0.001,0.013-0.001,0.019s0.001,0.013,0.001,0.019v33.115c0,4.143,3.357,7.5,7.5,7.5s7.5-3.357,7.5-7.5V97.832H90.315z    M90.334,64.698c5,0,9.067,4.067,9.067,9.067c0,4.993-4.057,9.056-9.048,9.066h-9.087V64.698H90.334z"/>
	<path d="M487.932,281.633H466.15l-13.42-59.477c-0.043-0.189-0.093-0.378-0.15-0.563c-4.211-13.633-16.634-22.792-30.912-22.792   H239.435c-14.277,0-26.7,9.159-30.913,22.792c-0.057,0.186-0.107,0.373-0.15,0.563l-13.42,59.477h-21.782   c-13.271,0-24.066,10.797-24.066,24.067v33.132c0,4.142,3.357,7.5,7.5,7.5l25.631,0.001v67.831h-9.064c-4.143,0-7.5,3.357-7.5,7.5   v33.135c0,4.143,3.357,7.5,7.5,7.5h25.634V504.5c0,4.143,3.357,7.5,7.5,7.5h57.989c4.143,0,7.5-3.357,7.5-7.5v-42.201h117.522   V504.5c0,4.143,3.357,7.5,7.5,7.5h57.989c4.143,0,7.5-3.357,7.5-7.5v-42.201h25.63c4.143,0,7.5-3.357,7.5-7.5v-33.135   c0-4.143-3.357-7.5-7.5-7.5h-9.067l0.001-67.831l25.632-0.001c4.143,0,7.5-3.358,7.5-7.5V305.7   C511.999,292.43,501.202,281.633,487.932,281.633z M222.934,225.767c2.333-7.169,8.931-11.966,16.501-11.966h182.232   c7.57,0,14.168,4.797,16.5,11.966l14.638,64.875c0.001,0.003,0.001,0.006,0.002,0.009l9.179,40.68h-17.398l-15.522-93.129   c-0.603-3.616-3.731-6.267-7.397-6.267h-41.991c-4.143,0-7.5,3.357-7.5,7.5c0,4.143,3.357,7.5,7.5,7.5h35.638l14.067,84.396   H231.724l14.067-84.396h103.886c4.143,0,7.5-3.357,7.5-7.5c0-4.143-3.357-7.5-7.5-7.5H239.438c-3.666,0-6.795,2.65-7.397,6.267   l-15.523,93.129h-17.403l9.179-40.68c0.001-0.003,0.001-0.006,0.002-0.009L222.934,225.767z M164.103,305.7   c0-5,4.067-9.067,9.066-9.067h18.397l-7.83,34.7l-19.634-0.001V305.7z M364.469,414.164h-67.832v-26.415h67.832V414.164z    M256.792,497h-42.989v-34.701h42.989V497z M447.303,497h-42.989v-34.701h42.989V497z M480.433,447.299h-25.514   c-0.039,0-0.077-0.006-0.116-0.006h-57.989c-0.039,0-0.077,0.005-0.116,0.006H264.408c-0.039,0-0.077-0.006-0.116-0.006h-57.989   c-0.039,0-0.077,0.005-0.116,0.006h-25.517v-18.135h9.026c0.013,0,0.026,0.002,0.039,0.002h281.632   c0.013,0,0.026-0.002,0.039-0.002h9.029V447.299z M379.469,414.164v-33.915c0-4.143-3.357-7.5-7.5-7.5h-82.832   c-4.142,0-7.5,3.357-7.5,7.5v33.915h-84.403v-67.833h25.601c0.012,0,0.024,0.002,0.036,0.002h215.365   c0.012,0,0.024-0.002,0.036-0.002h25.596l-0.002,67.833H379.469z M496.999,331.332l-19.635,0.001l-7.83-34.7h18.397   c5,0,9.067,4.067,9.067,9.067V331.332z"/>
	<path d="M231.155,356.184c-13.271,0-24.066,10.796-24.066,24.065c0,13.271,10.796,24.066,24.066,24.066   c13.27,0,24.066-10.796,24.066-24.066C255.222,366.979,244.426,356.184,231.155,356.184z M231.155,389.315   c-4.999,0-9.066-4.067-9.066-9.066s4.067-9.065,9.066-9.065c4.999,0,9.066,4.066,9.066,9.065S236.154,389.315,231.155,389.315z"/>
	<path d="M429.95,356.184c-13.271,0-24.066,10.796-24.066,24.065c0,13.271,10.796,24.066,24.066,24.066s24.066-10.796,24.066-24.066   C454.017,366.979,443.221,356.184,429.95,356.184z M429.95,389.315c-4.999,0-9.066-4.067-9.066-9.066s4.067-9.065,9.066-9.065   s9.066,4.066,9.066,9.065S434.949,389.315,429.95,389.315z"/>
</g>















</svg>
